<?xml version="1.0" encoding="utf-8"?>
<!-- Generator: Adobe Illustrator 24.3.0, SVG Export Plug-In . SVG Version: 6.00 Build 0)  -->
<svg version="1.1" id="Layer_1" xmlns="http://www.w3.org/2000/svg" xmlns:xlink="http://www.w3.org/1999/xlink" x="0px" y="0px"
	 viewBox="0 0 1260 916" style="enable-background:new 0 0 1260 916;" xml:space="preserve">
<style type="text/css">
	.st0{fill:#CBAE87;fill-opacity:0.7;stroke:#CBAE87;stroke-width:2;}
	.st1{fill:#ED6300;fill-opacity:0.7;stroke:#ED6300;stroke-width:2;}
	.st2{fill:#A1A1A1;fill-opacity:0.7;stroke:#A1A1A1;stroke-width:2;}
	.st3{fill:#4FC480;fill-opacity:0.7;stroke:#4FC480;stroke-width:2;}
	.st4{fill:#1D716B;fill-opacity:0.7;stroke:#1D716B;stroke-width:2;}
	.st5{fill:#4682B4;fill-opacity:0.3;stroke:#4682B4;}
	.st6{fill:#8F2270;fill-opacity:0.7;stroke:#8F2270;stroke-width:2;}
	.st7{fill:#00B2FF;fill-opacity:0.7;stroke:#00B2FF;stroke-width:2;}
	.st8{fill:#0077B6;fill-opacity:0.7;stroke:#0077B6;stroke-width:2;}
</style>
<circle class="st0" cx="674.6" cy="144.4" r="3"/>
<circle class="st0" cx="682.7" cy="178.5" r="3.7"/>
<rect x="666.2" y="239" class="st0" width="0" height="0"/>
<circle class="st0" cx="648.1" cy="234.2" r="2"/>
<rect x="903.3" y="182.9" class="st0" width="0" height="0"/>
<circle class="st1" cx="1003.6" cy="407.1" r="5.9"/>
<rect x="689.2" y="267.9" class="st0" width="0" height="0"/>
<circle class="st1" cx="983.6" cy="356.4" r="7.7"/>
<circle class="st1" cx="986.6" cy="411.7" r="9.7"/>
<circle class="st0" cx="351" cy="186.1" r="8.6"/>
<circle class="st0" cx="284.6" cy="265" r="19.1"/>
<circle class="st2" cx="280.8" cy="360.8" r="12.8"/>
<circle class="st2" cx="378.8" cy="614.2" r="3.5"/>
<circle class="st3" cx="725.5" cy="555.9" r="3.2"/>
<ellipse transform="matrix(0.3827 -0.9239 0.9239 0.3827 198.643 1230.993)" class="st1" cx="1020.5" cy="466.9" rx="20.4" ry="20.4"/>
<circle class="st2" cx="339.3" cy="463.5" r="6.5"/>
<circle class="st4" cx="1066.1" cy="483.8" r="6.9"/>
<circle class="st2" cx="336" cy="423.8" r="3.6"/>
<ellipse transform="matrix(0.3827 -0.9239 0.9239 0.3827 257.5661 1206.6219)" class="st1" cx="1031.7" cy="410.6" rx="20.4" ry="20.4"/>
<circle class="st2" cx="365.8" cy="369.7" r="0.3"/>
<circle class="st2" cx="315.8" cy="385.2" r="1.1"/>
<rect x="1031.8" y="302.2" class="st1" width="0" height="0"/>
<rect x="970" y="306.6" class="st1" width="0" height="0"/>
<rect x="710.5" y="169" class="st0" width="0" height="0"/>
<rect x="525.4" y="108.2" class="st0" width="0" height="0"/>
<rect x="672.3" y="845.1" class="st5" width="0" height="0"/>
<rect x="227.3" y="556.9" class="st5" width="0" height="0"/>
<circle class="st4" cx="197" cy="518.7" r="0.6"/>
<rect x="860.6" y="667" class="st5" width="0" height="0"/>
<circle class="st3" cx="830.1" cy="483.9" r="0.3"/>
<circle class="st4" cx="419.9" cy="454.6" r="0.8"/>
<circle class="st4" cx="1085.1" cy="429.7" r="0.3"/>
<circle class="st6" cx="924.9" cy="367.1" r="50"/>
<circle class="st2" cx="380.4" cy="429.4" r="8.4"/>
<circle class="st0" cx="619.7" cy="281.2" r="3.6"/>
<circle class="st2" cx="316.7" cy="403" r="6.1"/>
<rect x="270.2" y="397.4" class="st5" width="0" height="0"/>
<circle class="st2" cx="388.7" cy="383.2" r="0.2"/>
<rect x="343.8" y="370.5" class="st2" width="0" height="0"/>
<circle class="st2" cx="352.8" cy="359.6" r="0.6"/>
<rect x="395.1" y="325.2" class="st0" width="0" height="0"/>
<rect x="715" y="295.5" class="st0" width="0" height="0"/>
<rect x="674.1" y="278.5" class="st0" width="0" height="0"/>
<circle class="st0" cx="611.3" cy="224.1" r="0.2"/>
<circle class="st0" cx="619.9" cy="223.8" r="6.5"/>
<rect x="695" y="192.9" class="st5" width="0" height="0"/>
<circle class="st0" cx="607.9" cy="182.4" r="0.3"/>
<rect x="899.7" y="487" class="st5" width="0" height="0"/>
<circle class="st4" cx="1080.2" cy="528.2" r="1.3"/>
<circle class="st4" cx="186.6" cy="537.2" r="0.1"/>
<circle class="st4" cx="1086.5" cy="489.3" r="0.1"/>
<circle class="st6" cx="903.1" cy="443.5" r="0.7"/>
<circle class="st4" cx="1076.3" cy="429.6" r="0.5"/>
<circle class="st4" cx="179.6" cy="538.7" r="0.5"/>
<circle class="st4" cx="1080.3" cy="523" r="1.6"/>
<circle class="st7" cx="808.2" cy="345.2" r="1.8"/>
<rect x="174.5" y="493.8" class="st5" width="0" height="0"/>
<rect x="1051" y="428.8" class="st4" width="0" height="0"/>
<rect x="812.1" y="407.9" class="st5" width="0" height="0"/>
<circle class="st1" cx="1006.9" cy="365.8" r="1.4"/>
<circle class="st8" cx="1040.9" cy="562.4" r="7.7"/>
<circle class="st7" cx="729.4" cy="339.2" r="21.9"/>
<circle class="st3" cx="717.6" cy="472.2" r="33.7"/>
<circle class="st3" cx="785.6" cy="387.7" r="13.4"/>
<circle class="st7" cx="825.6" cy="368.1" r="4.1"/>
<circle class="st6" cx="856.8" cy="253.2" r="7.8"/>
<rect x="760.5" y="327.5" class="st7" width="0" height="0"/>
<circle class="st7" cx="761" cy="315.4" r="12.7"/>
<circle class="st7" cx="887" cy="325.3" r="4.4"/>
<rect x="713.5" y="200.6" class="st0" width="0" height="0"/>
<rect x="712.8" y="210" class="st0" width="0" height="0"/>
<rect x="710.5" y="217.8" class="st0" width="0" height="0"/>
<rect x="709.5" y="284" class="st0" width="0" height="0"/>
<rect x="703.7" y="286" class="st0" width="0" height="0"/>
<circle class="st7" cx="800" cy="289.3" r="2.3"/>
<rect x="786.2" y="281.5" class="st7" width="0" height="0"/>
<rect x="792.6" y="289.9" class="st7" width="0" height="0"/>
<circle class="st2" cx="426.1" cy="501.1" r="12.7"/>
<circle class="st0" cx="601.7" cy="228.7" r="2.7"/>
<circle class="st3" cx="615.3" cy="409.4" r="7"/>
<circle class="st3" cx="568.9" cy="417.4" r="9.8"/>
<circle class="st3" cx="711.2" cy="427.7" r="7.5"/>
<circle class="st7" cx="768.2" cy="357.8" r="19.1"/>
<circle class="st3" cx="806.6" cy="409.5" r="1.9"/>
<circle class="st3" cx="771.7" cy="552.7" r="13"/>
<path class="st0" d="M680.2,255.5c0.2,0,0.4,0.2,0.4,0.4c0,0.2-0.2,0.4-0.4,0.4s-0.4-0.2-0.4-0.4C679.8,255.7,680,255.5,680.2,255.5
	z"/>
<circle class="st0" cx="664.4" cy="257.3" r="0.2"/>
<circle class="st3" cx="661.8" cy="422.1" r="39.3"/>
<circle class="st3" cx="688.1" cy="377.3" r="10.7"/>
<rect x="683.2" y="262.9" class="st0" width="0" height="0"/>
<rect x="699.3" y="258" class="st0" width="0" height="0"/>
<rect x="978.5" y="392.6" class="st1" width="0" height="0"/>
<rect x="676" y="273.5" class="st0" width="0" height="0"/>
<circle class="st2" cx="372.3" cy="383.5" r="4.4"/>
<circle class="st2" cx="360.4" cy="380.3" r="5.9"/>
<circle class="st7" cx="803.7" cy="337.3" r="2.9"/>
<circle class="st7" cx="792.7" cy="314" r="17.1"/>
<circle class="st0" cx="635.6" cy="279.6" r="0.1"/>
<rect x="706.2" y="279.5" class="st5" width="0" height="0"/>
<circle class="st3" cx="762.4" cy="477.7" r="9.5"/>
<circle class="st3" cx="794.1" cy="480.7" r="19.8"/>
<rect x="705.3" y="271.9" class="st0" width="0" height="0"/>
<rect x="700.2" y="278.5" class="st0" width="0" height="0"/>
<circle class="st2" cx="318.6" cy="412.8" r="1.8"/>
<circle class="st0" cx="646.1" cy="241.2" r="2.2"/>
<circle class="st0" cx="659.6" cy="259.8" r="3.2"/>
<rect x="694.5" y="272.1" class="st0" width="0" height="0"/>
<rect x="698.9" y="250.6" class="st0" width="0" height="0"/>
<circle class="st0" cx="683.8" cy="245.7" r="0.7"/>
<rect x="721.8" y="278.5" class="st0" width="0" height="0"/>
<rect x="719.6" y="264.2" class="st0" width="0" height="0"/>
<rect x="731.1" y="257.8" class="st0" width="0" height="0"/>
<rect x="739.5" y="248.4" class="st0" width="0" height="0"/>
<circle class="st6" cx="814" cy="293.7" r="10.3"/>
<circle class="st3" cx="761.4" cy="514.1" r="24.9"/>
<circle class="st3" cx="797.8" cy="448.7" r="10.5"/>
<circle class="st3" cx="742.6" cy="401.8" r="29.8"/>
<circle class="st3" cx="748.2" cy="441.2" r="7.9"/>
<circle class="st3" cx="678.8" cy="463.7" r="3.7"/>
<circle class="st3" cx="589.8" cy="431.6" r="13.5"/>
<circle class="st3" cx="592.8" cy="401.2" r="15"/>
<rect x="609.5" y="308.5" class="st0" width="0" height="0"/>
<rect x="616.2" y="290.2" class="st0" width="0" height="0"/>
<circle class="st2" cx="306" cy="390.8" r="8.1"/>
<circle class="st2" cx="324" cy="417.9" r="2.3"/>
<circle class="st2" cx="357.4" cy="442.2" r="7.4"/>
<circle class="st6" cx="863" cy="375.3" r="10.5"/>
<circle class="st6" cx="887.9" cy="294.9" r="17.9"/>
<circle class="st7" cx="774.2" cy="331.4" r="6.1"/>
<circle class="st7" cx="815" cy="393.1" r="14.5"/>
<circle class="st7" cx="635.4" cy="337.6" r="12.3"/>
<circle class="st3" cx="590.9" cy="375.2" r="6.3"/>
<circle class="st3" cx="564.7" cy="393.9" r="12.1"/>
<circle class="st3" cx="580.1" cy="385.1" r="3.6"/>
<circle class="st3" cx="823.6" cy="450.5" r="13.5"/>
<circle class="st3" cx="788.2" cy="420.4" r="17.4"/>
<circle class="st3" cx="770.5" cy="452.5" r="15"/>
<circle class="st3" cx="668" cy="466.3" r="3.3"/>
<circle class="st3" cx="675.5" cy="555.4" r="3.4"/>
<circle class="st3" cx="554.8" cy="409.5" r="4.4"/>
<circle class="st3" cx="612.7" cy="426.2" r="8"/>
<circle class="st3" cx="619.7" cy="387.7" r="13.2"/>
<circle class="st3" cx="801" cy="514.8" r="12.7"/>
<circle class="st3" cx="718.8" cy="525" r="17"/>
<rect x="1007" y="367.4" class="st1" width="0" height="0"/>
<circle class="st7" cx="745.6" cy="319.1" r="1.2"/>
<circle class="st3" cx="675.5" cy="475.4" r="6.5"/>
<circle class="st7" cx="810.4" cy="351.1" r="2.5"/>
<rect x="1018.2" y="307.4" class="st1" width="0" height="0"/>
<circle class="st7" cx="759.2" cy="290.4" r="10.3"/>
<rect x="397.5" y="415.9" class="st2" width="0" height="0"/>
<circle class="st2" cx="396.5" cy="409.1" r="0.3"/>
<rect x="404" y="405" class="st2" width="0" height="0"/>
<rect x="398.3" y="404.9" class="st2" width="0" height="0"/>
<rect x="399.3" y="402" class="st2" width="0" height="0"/>
<circle class="st2" cx="398.4" cy="395.8" r="0.1"/>
<circle class="st2" cx="397.4" cy="388.2" r="0.2"/>
<rect x="394.4" y="388.3" class="st2" width="0" height="0"/>
<rect x="392.6" y="383.9" class="st2" width="0" height="0"/>
<rect x="347.4" y="384.7" class="st2" width="0" height="0"/>
<rect x="847.5" y="539.3" class="st3" width="0" height="0"/>
<circle class="st0" cx="684.1" cy="309.4" r="0.1"/>
<circle class="st1" cx="990.4" cy="452.1" r="2"/>
<circle class="st4" cx="177" cy="513.3" r="1"/>
<circle class="st4" cx="1084.7" cy="459.8" r="0.1"/>
<circle class="st8" cx="1051.8" cy="632.8" r="2.8"/>
<circle class="st2" cx="353.9" cy="494.5" r="8.9"/>
<circle class="st2" cx="328.8" cy="407.1" r="4.6"/>
<circle class="st3" cx="812.6" cy="541.8" r="14.6"/>
<circle class="st3" cx="766.1" cy="429.8" r="4.7"/>
<circle class="st7" cx="699.3" cy="347.7" r="4.1"/>
<circle class="st3" cx="535.7" cy="393.8" r="1.2"/>
<circle class="st3" cx="725.7" cy="576.1" r="11.6"/>
<circle class="st0" cx="572.8" cy="166.2" r="0.6"/>
<circle class="st3" cx="572.9" cy="444.6" r="5.9"/>
<circle class="st7" cx="597.5" cy="335.8" r="8.7"/>
<circle class="st6" cx="845" cy="330.5" r="35.8"/>
<circle class="st1" cx="1004.8" cy="440.3" r="8.4"/>
<circle class="st0" cx="663.8" cy="214.6" r="2.4"/>
<circle class="st7" cx="666" cy="317.4" r="4.4"/>
<circle class="st7" cx="799.8" cy="362.2" r="10.8"/>
<circle class="st6" cx="993.4" cy="382.6" r="18.2"/>
<rect x="1011.5" y="290.5" class="st1" width="0" height="0"/>
<circle class="st6" cx="841.4" cy="288.6" r="4.3"/>
<circle class="st3" cx="681.4" cy="530.8" r="18.8"/>
<rect x="597.8" y="293" class="st0" width="0" height="0"/>
<circle class="st2" cx="396.1" cy="603.9" r="7.8"/>
<circle class="st4" cx="1076" cy="543.9" r="0.8"/>
<circle class="st2" cx="404.6" cy="438.7" r="0.8"/>
<circle class="st6" cx="925.7" cy="427.7" r="1"/>
<circle class="st2" cx="372" cy="409" r="0.4"/>
<rect x="368.9" y="407.6" class="st2" width="0" height="0"/>
<rect x="1019.3" y="361.6" class="st1" width="0" height="0"/>
<rect x="435.2" y="259.1" class="st0" width="0" height="0"/>
<rect x="387.6" y="385.6" class="st2" width="0" height="0"/>
<rect x="394.4" y="384.3" class="st2" width="0" height="0"/>
<rect x="382.2" y="384.4" class="st2" width="0" height="0"/>
<circle class="st2" cx="337.2" cy="379.6" r="0.3"/>
<rect x="867.1" y="686.5" class="st5" width="0" height="0"/>
<rect x="590.2" y="557.7" class="st3" width="0" height="0"/>
<circle class="st3" cx="808.4" cy="499.8" r="2"/>
<circle class="st3" cx="683.4" cy="458.7" r="1.2"/>
<circle class="st0" cx="622.5" cy="248.3" r="0.5"/>
<circle class="st0" cx="620.4" cy="246.6" r="0.2"/>
<rect x="1069.7" y="576.4" class="st5" width="0" height="0"/>
<rect x="174.1" y="514" class="st4" width="0" height="0"/>
<circle class="st4" cx="1079.1" cy="493.4" r="2.2"/>
<circle class="st1" cx="1036.3" cy="493.2" r="2.1"/>
<rect x="508.7" y="694.4" class="st5" width="0" height="0"/>
<rect x="431.5" y="679.9" class="st2" width="0" height="0"/>
<rect x="180.2" y="534.7" class="st4" width="0" height="0"/>
<rect x="174.5" y="512.4" class="st4" width="0" height="0"/>
<circle class="st4" cx="1063.2" cy="403.9" r="0.5"/>
<circle class="st4" cx="1062.8" cy="392.9" r="0.1"/>
<rect x="424.3" y="592.6" class="st2" width="0" height="0"/>
<circle class="st2" cx="387.6" cy="525.1" r="6.5"/>
<circle class="st7" cx="740.5" cy="311.2" r="6.2"/>
<circle class="st7" cx="786.8" cy="338.3" r="5.9"/>
<circle class="st6" cx="969.3" cy="338.2" r="1"/>
<rect x="725.5" y="226.9" class="st0" width="0" height="0"/>
<circle class="st2" cx="393.1" cy="386" r="0.2"/>
<rect x="395.1" y="385.9" class="st2" width="0" height="0"/>
<circle class="st1" cx="952.9" cy="259.6" r="3.3"/>
<circle class="st0" cx="651.3" cy="245.5" r="1.2"/>
<circle class="st1" cx="955.5" cy="319.3" r="4.7"/>
<circle class="st6" cx="891.6" cy="270.1" r="5.2"/>
<rect x="697" y="234" class="st0" width="0" height="0"/>
<circle class="st6" cx="912.5" cy="283.8" r="7.2"/>
<circle class="st3" cx="613.4" cy="451.6" r="15.5"/>
<circle class="st3" cx="738.8" cy="545.9" r="9.9"/>
<circle class="st1" cx="1016.2" cy="440.8" r="0.7"/>
<circle class="st0" cx="656.9" cy="274.2" r="0.1"/>
<circle class="st3" cx="750.5" cy="566" r="2.1"/>
<circle class="st2" cx="415.3" cy="441.3" r="1"/>
<circle class="st2" cx="411.2" cy="552" r="4.2"/>
<circle class="st6" cx="969.2" cy="325.9" r="8.5"/>
<circle class="st3" cx="741.2" cy="580" r="2.4"/>
<circle class="st3" cx="659.9" cy="361.2" r="19.7"/>
<circle class="st7" cx="582.3" cy="359.5" r="1.6"/>
<rect x="395.9" y="390.6" class="st2" width="0" height="0"/>
<rect x="27.4" y="-448.2" style="fill:none;" width="960" height="346"/>
<text transform="matrix(1 0 0 1 27.4497 -439.6572)"><tspan x="0" y="0" style="font-family:'MyriadPro-Regular'; font-size:12px;">Central and Southern Asia</tspan><tspan x="0" y="14.4" style="font-family:'MyriadPro-Regular'; font-size:12px;">Europe and Northern America</tspan><tspan x="0" y="28.8" style="font-family:'MyriadPro-Regular'; font-size:12px;">Northern Africa and Western Asia</tspan><tspan x="0" y="43.2" style="font-family:'MyriadPro-Regular'; font-size:12px;">Oceania</tspan><tspan x="0" y="57.6" style="font-family:'MyriadPro-Regular'; font-size:12px;">Sub Saharan Africa</tspan><tspan x="0" y="72" style="font-family:'MyriadPro-Regular'; font-size:12px;">Latin America and the Caribbean</tspan><tspan x="0" y="86.4" style="font-family:'MyriadPro-Regular'; font-size:12px;">Australia and New Zealand</tspan><tspan x="0" y="100.8" style="font-family:'MyriadPro-Regular'; font-size:12px;">Eastern and South Eastern Asia</tspan></text>
</svg>
